<svg width="24" height="24" viewBox="0 0 24 24" fill="none" xmlns="http://www.w3.org/2000/svg">
<path d="M5 21H19.4" stroke="#222222" style="stroke:#222222;stroke:color(display-p3 0.1333 0.1333 0.1333);stroke-opacity:1;" stroke-width="1.63" stroke-linecap="round"/>
<path d="M17.903 8.50014L18.5708 7.83414C18.8338 7.57123 19.0424 7.2591 19.1848 6.91556C19.3271 6.57203 19.4004 6.20382 19.4004 5.83196C19.4005 5.46011 19.3273 5.09188 19.185 4.74831C19.0427 4.40475 18.8342 4.09257 18.5713 3.82959C18.3084 3.56662 17.9962 3.35801 17.6527 3.21567C17.3092 3.07333 16.9409 3.00004 16.5691 3C16.1972 2.99996 15.829 3.07316 15.4854 3.21542C15.1419 3.35769 14.8297 3.56623 14.5667 3.82914L13.8989 4.49694C13.8989 4.49694 13.9826 5.91534 15.2336 7.16634C16.4846 8.41734 17.903 8.50104 17.903 8.50104L11.7677 14.6363C11.3519 15.0521 11.1449 15.2591 10.9154 15.4382C10.6448 15.6494 10.3541 15.8291 10.0433 15.9773C9.78142 16.1024 9.50242 16.1951 8.94532 16.3805L6.58192 17.1689M13.8989 4.49604L7.76363 10.6322C7.34783 11.048 7.13992 11.255 6.96172 11.4845C6.75063 11.7546 6.56984 12.0471 6.42262 12.3566C6.29752 12.6185 6.20482 12.8975 6.01852 13.4546L5.23103 15.818M5.23103 15.818L5.03933 16.3949C4.99439 16.5295 4.98782 16.6738 5.02036 16.8119C5.0529 16.9499 5.12325 17.0762 5.22354 17.1764C5.32382 17.2767 5.45006 17.3471 5.5881 17.3796C5.72614 17.4121 5.87051 17.4056 6.00503 17.3606L6.58192 17.1689M5.23103 15.818L6.58192 17.1689" stroke="#222222" style="stroke:#222222;stroke:color(display-p3 0.1333 0.1333 0.1333);stroke-opacity:1;" stroke-width="1.63"/>
</svg>
