<svg width="24" height="24" viewBox="0 0 24 24" fill="none" xmlns="http://www.w3.org/2000/svg">
<path d="M6.93285 3.40681C7.83845 2.1037 10.9637 4.2351 11.9851 5.5327C11.9851 7.79662 11.6989 8.38915 8.81021 8.95612C5.8561 9.53593 5.80086 5.03571 6.93285 3.40681Z" fill="#FFD1E0" style="fill:#FFD1E0;fill:color(display-p3 1.0000 0.8183 0.8796);fill-opacity:1;"/>
<path d="M17.0669 3.40681C16.1613 2.1037 13.0361 4.2351 12.0146 5.5327C12.0146 7.79662 12.3009 8.38915 15.1895 8.95612C18.1437 9.53593 18.1989 5.03571 17.0669 3.40681Z" fill="#FFD1E0" style="fill:#FFD1E0;fill:color(display-p3 1.0000 0.8183 0.8796);fill-opacity:1;"/>
<rect x="3" y="7.50366" width="18" height="13" rx="3" fill="#FF689B" style="fill:#FF689B;fill:color(display-p3 1.0000 0.4078 0.6078);fill-opacity:1;"/>
<rect x="10" y="7.50366" width="4" height="13" fill="#FFD1E0" style="fill:#FFD1E0;fill:color(display-p3 1.0000 0.8183 0.8796);fill-opacity:1;"/>
<path d="M11 4.70366C11 4.59321 11.0895 4.50366 11.2 4.50366H12.8C12.9105 4.50366 13 4.59321 13 4.70366V7.50366H11V4.70366Z" fill="#FFB1CC" style="fill:#FFB1CC;fill:color(display-p3 1.0000 0.6952 0.7997);fill-opacity:1;"/>
</svg>
