<svg width="24" height="24" viewBox="0 0 24 24" fill="none" xmlns="http://www.w3.org/2000/svg">
<g clip-path="url(#clip0_47_390)">
<path d="M17.9266 4.17252H4.35893C3.18747 4.17252 2.229 5.13098 2.229 6.30244V15.77L8.46969 22.0106H17.9372C19.1087 22.0106 20.0671 21.0522 20.0671 19.8807V6.30244C20.0671 5.13098 19.1087 4.17252 17.9372 4.17252H17.9266Z" fill="#E0E4E9" style="fill:#E0E4E9;fill:color(display-p3 0.8784 0.8941 0.9137);fill-opacity:1;"/>
<path d="M6.63795 15.7593H2.229L8.46969 22V17.591C8.46969 16.5793 7.64966 15.7593 6.63795 15.7593Z" fill="#B7BFC8" style="fill:#B7BFC8;fill:color(display-p3 0.7176 0.7490 0.7843);fill-opacity:1;"/>
<path d="M19.0142 7.02369L16.6529 4.66241C16.2355 4.24501 16.2355 3.57717 16.6529 3.15977L17.3207 2.49193C17.9766 1.83602 19.038 1.83602 19.6939 2.49193L21.1727 3.97072C21.8286 4.62663 21.8286 5.68801 21.1727 6.34393L20.5049 7.01176C20.0875 7.42916 19.4196 7.42916 19.0023 7.01176L19.0142 7.02369Z" fill="#FF7149" style="fill:#FF7149;fill:color(display-p3 1.0000 0.4415 0.2871);fill-opacity:1;"/>
<path d="M13.5706 13.5814L10.3621 13.7146C10.1321 13.7146 9.93838 13.533 9.95049 13.3029L10.0837 10.0822C10.0837 9.80367 10.2169 9.53729 10.4106 9.33146L14.2123 5.52952C14.6481 5.09362 15.3383 5.08152 15.762 5.5053L18.1593 7.9027C18.583 8.32649 18.5709 9.01665 18.135 9.45254L14.3333 13.2545C14.1275 13.4603 13.8612 13.5693 13.5706 13.5814Z" fill="#FF8D6D" style="fill:#FF8D6D;fill:color(display-p3 1.0000 0.5529 0.4275);fill-opacity:1;"/>
<mask id="mask0_47_390" style="mask-type:luminance" maskUnits="userSpaceOnUse" x="9" y="5" width="10" height="9">
<path d="M13.5708 13.5814L10.3622 13.7146C10.1321 13.7146 9.93838 13.533 9.95049 13.3029L10.0837 10.0822C10.0837 9.80367 10.2169 9.53729 10.4106 9.33146L14.2125 5.52952C14.6484 5.09362 15.3386 5.08152 15.7624 5.5053L18.1598 7.9027C18.5836 8.32649 18.5715 9.01665 18.1356 9.45254L14.3336 13.2545C14.1278 13.4603 13.8614 13.5693 13.5708 13.5814Z" fill="white" style="fill:white;fill-opacity:1;"/>
</mask>
<g mask="url(#mask0_47_390)">
<path d="M9.94975 9.44858L14.3092 13.8087L7.81982 14.7801" fill="#FFCAB3" style="fill:#FFCAB3;fill:color(display-p3 1.0000 0.7922 0.7020);fill-opacity:1;"/>
<path d="M9.12976 11.3181L13.2451 15.4334L8.76733 15.562" fill="#282828" style="fill:#282828;fill:color(display-p3 0.1569 0.1569 0.1569);fill-opacity:1;"/>
</g>
</g>
<defs>
<clipPath id="clip0_47_390">
<rect width="19.5421" height="20" fill="white" style="fill:white;fill-opacity:1;" transform="translate(2.229 2)"/>
</clipPath>
</defs>
</svg>
