<svg width="121" height="121" viewBox="0 0 121 121" fill="none" xmlns="http://www.w3.org/2000/svg">
<path d="M35.4537 17.676C40.0194 11.1061 55.7757 21.852 60.9257 28.394C60.9257 39.808 59.4823 42.7953 44.9187 45.6538C30.0251 48.577 29.7466 25.8884 35.4537 17.676Z" fill="#FFD1E0" style="fill:#FFD1E0;fill:color(display-p3 1.0000 0.8183 0.8796);fill-opacity:1;"/>
<path d="M86.5461 17.676C81.9804 11.1061 66.224 21.852 61.0741 28.394C61.0741 39.808 62.5174 42.7953 77.0811 45.6538C91.9747 48.577 92.2532 25.8884 86.5461 17.676Z" fill="#FFD1E0" style="fill:#FFD1E0;fill:color(display-p3 1.0000 0.8183 0.8796);fill-opacity:1;"/>
<rect x="15.625" y="38.3309" width="90.75" height="65.5417" rx="15.125" fill="#FF689B" style="fill:#FF689B;fill:color(display-p3 1.0000 0.4078 0.6078);fill-opacity:1;"/>
<rect x="50.9167" y="38.3309" width="20.1667" height="65.5417" fill="#FFD1E0" style="fill:#FFD1E0;fill:color(display-p3 1.0000 0.8183 0.8796);fill-opacity:1;"/>
<path d="M55.9583 24.2143C55.9583 23.6574 56.4097 23.2059 56.9666 23.2059H65.0333C65.5901 23.2059 66.0416 23.6574 66.0416 24.2143V38.3309H55.9583V24.2143Z" fill="#FFB1CC" style="fill:#FFB1CC;fill:color(display-p3 1.0000 0.6952 0.7997);fill-opacity:1;"/>
</svg>
