<svg width="20" height="20" viewBox="0 0 20 20" fill="none" xmlns="http://www.w3.org/2000/svg">
<path d="M15 10.8316H10.8333V14.9983C10.8333 15.2193 10.7455 15.4313 10.5892 15.5876C10.4329 15.7438 10.221 15.8316 9.99996 15.8316C9.77895 15.8316 9.56698 15.7438 9.4107 15.5876C9.25442 15.4313 9.16663 15.2193 9.16663 14.9983V10.8316H4.99996C4.77895 10.8316 4.56698 10.7438 4.4107 10.5876C4.25442 10.4313 4.16663 10.2193 4.16663 9.99831C4.16663 9.7773 4.25442 9.56534 4.4107 9.40906C4.56698 9.25278 4.77895 9.16498 4.99996 9.16498H9.16663V4.99831C9.16663 4.7773 9.25442 4.56534 9.4107 4.40906C9.56698 4.25278 9.77895 4.16498 9.99996 4.16498C10.221 4.16498 10.4329 4.25278 10.5892 4.40906C10.7455 4.56534 10.8333 4.7773 10.8333 4.99831V9.16498H15C15.221 9.16498 15.4329 9.25278 15.5892 9.40906C15.7455 9.56534 15.8333 9.7773 15.8333 9.99831C15.8333 10.2193 15.7455 10.4313 15.5892 10.5876C15.4329 10.7438 15.221 10.8316 15 10.8316Z" fill="#FDFDFD" style="fill:#FDFDFD;fill:color(display-p3 0.9922 0.9922 0.9922);fill-opacity:1;"/>
</svg>
